<svg xmlns="http://www.w3.org/2000/svg" width="70" height="70" viewBox="0 0 70 70">
  <g id="icon-arrow-right" transform="translate(-409 -5594)">
    <circle id="Ellipse_183" data-name="Ellipse 183" cx="35" cy="35" r="35" transform="translate(409 5594)" fill="#5956e9"/>
    <g id="arrow-left" transform="translate(430 5621)">
      <path id="Tracé_109" data-name="Tracé 109" d="M4.829,10.454a1.125,1.125,0,0,0,0,1.593L10.784,18,4.828,23.954a1.126,1.126,0,1,0,1.593,1.593l6.75-6.75a1.125,1.125,0,0,0,0-1.593l-6.75-6.75a1.125,1.125,0,0,0-1.593,0Z" transform="translate(13.5 -10.123)" fill="#fff" fill-rule="evenodd"/>
      <path id="Tracé_110" data-name="Tracé 110" d="M31.5,18a1.125,1.125,0,0,0-1.125-1.125H6.75a1.125,1.125,0,0,0,0,2.25H30.375A1.125,1.125,0,0,0,31.5,18Z" transform="translate(-5.625 -10.123)" fill="#fff" fill-rule="evenodd"/>
    </g>
  </g>
</svg>
