<svg xmlns="http://www.w3.org/2000/svg" width="70" height="70" viewBox="0 0 70 70">
  <g id="icon-arrow-left" transform="translate(-323 -5594)">
    <circle id="Ellipse_185" data-name="Ellipse 185" cx="35" cy="35" r="35" transform="translate(323 5594)" fill="#5956e9"/>
    <g id="arrow-left" transform="translate(339.502 5611.876)">
      <path id="Tracé_109" data-name="Tracé 109" d="M13.171,10.454a1.125,1.125,0,0,1,0,1.593L7.216,18l5.956,5.954a1.126,1.126,0,0,1-1.593,1.593L4.829,18.8a1.125,1.125,0,0,1,0-1.593l6.75-6.75a1.125,1.125,0,0,1,1.593,0Z" fill="#fff" fill-rule="evenodd"/>
      <path id="Tracé_110" data-name="Tracé 110" d="M5.625,18A1.125,1.125,0,0,1,6.75,16.875H30.375a1.125,1.125,0,0,1,0,2.25H6.75A1.125,1.125,0,0,1,5.625,18Z" fill="#fff" fill-rule="evenodd"/>
    </g>
  </g>
</svg>
